HIERARCHY
ROOT ui
{
	 OFFSET 0 0 0
	 CHANNELS 3 XPosition YPosition Z Position
	 EndSite
	 {
	 OFFSET 0 -1 0
	 }
}
ROOT li
{
	 OFFSET 0 0 0
	 CHANNELS 3 XPosition YPosition Z Position
	 EndSite
	 {
	 OFFSET 0 -1 0
	 }
}
ROOT ul
{
	 OFFSET 0 0 0
	 CHANNELS 3 XPosition YPosition Z Position
	 EndSite
	 {
	 OFFSET 0 -1 0
	 }
}
ROOT ll
{
	 OFFSET 0 0 0
	 CHANNELS 3 XPosition YPosition Z Position
	 EndSite
	 {
	 OFFSET 0 -1 0
	 }
}
ROOT tt
{
	 OFFSET 0 0 0
	 CHANNELS 3 XPosition YPosition Z Position
	 EndSite
	 {
	 OFFSET 0 -1 0
	 }
}
ROOT tb
{
	 OFFSET 0 0 0
	 CHANNELS 3 XPosition YPosition Z Position
	 EndSite
	 {
	 OFFSET 0 -1 0
	 }
}
ROOT td
{
	 OFFSET 0 0 0
	 CHANNELS 3 XPosition YPosition Z Position
	 EndSite
	 {
	 OFFSET 0 -1 0
	 }
}
ROOT v
{
	 OFFSET 0 0 0
	 CHANNELS 3 XPosition YPosition Z Position
	 EndSite
	 {
	 OFFSET 0 -1 0
	 }
}
ROOT bn
{
	 OFFSET 0 0 0
	 CHANNELS 3 XPosition YPosition Z Position
	 EndSite
	 {
	 OFFSET 0 -1 0
	 }
}
MOTION
Frames: 13
Frame Time: 0.002
-0.005629948139190674	0.001293197989463806	0		0.5288194580078125	-2.4296962890625	0		-1.0207381591796876	0.08839849090576171	0		-0.7401217041015625	-2.5088251953125	0		1.428476318359375	-0.7284321899414062	0		3.074501708984375	-0.18639889526367187	0		4.611853515625	-0.0712027587890625	0		5.5930146484375	0.1210798568725586	0		-0.22218484497070312	5.896013671875	0		
0.029146575927734376	-0.008890869140625	0		0.5547506103515625	-2.432765625	0		-1.0267984619140624	0.09362805938720703	0		-0.7791514282226563	-2.5082265625	0		1.4073994140625	-0.72696044921875	0		3.08347119140625	-0.179201904296875	0		4.60767822265625	-0.07681405639648438	0		5.57781201171875	0.1136200180053711	0		-0.23859396362304688	5.88637890625	0		
-0.0029368610382080078	-0.0033406078815460204	0		0.4997467346191406	-2.4269482421875	0		-1.0170507202148438	0.08368856811523437	0		-0.7442342529296875	-2.510430419921875	0		1.42627099609375	-0.7279197998046875	0		3.0882607421875	-0.18595460510253906	0		4.60351904296875	-0.07842002868652344	0		5.58075537109375	0.12196865844726562	0		-0.2588683166503906	5.8917900390625	0		
0.016968063354492188	0.0016452200412750244	0		0.5355648803710937	-2.437119140625	0		-1.0091153564453126	0.0917721939086914	0		-0.816222900390625	-2.502470947265625	0		1.3960283203125	-0.7383458251953126	0		3.092269775390625	-0.1716980438232422	0		4.60237353515625	-0.07806049346923828	0		5.57958154296875	0.12035923767089844	0		-0.27915847778320313	5.896201171875	0		
-0.002181200981140137	0.0010527180433273315	0		0.518457275390625	-2.44071728515625	0		-1.010257568359375	0.091953857421875	0		-0.694423095703125	-2.515612060546875	0		1.43299560546875	-0.730502197265625	0		3.07896337890625	-0.1872609558105469	0		4.601236328125	-0.07770809936523437	0		5.59253466796875	0.1295895233154297	0		-0.21236239624023437	5.90666943359375	0		
0.022690534591674805	-1.918799988925457E-5	0		0.5604199829101563	-2.43995751953125	0		-1.0164190063476561	0.08818722534179688	0		-0.781364501953125	-2.505497314453125	0		1.4138048095703124	-0.7390579223632813	0		3.09900244140625	-0.1731909637451172	0		4.60012255859375	-0.07736701202392578	0		5.581416015625	0.13006700134277344	0		-0.26182916259765626	5.89039013671875	0		
-0.012365630149841308	0.0025485479831695557	0		0.549492919921875	-2.431633544921875	0		-0.9845459594726562	0.08400677490234375	0		-0.7124556884765625	-2.513069091796875	0		1.4198306884765626	-0.7308937377929687	0		3.08379931640625	-0.18475425720214844	0		4.605130859375	-0.06910592651367188	0		5.5862568359375	0.12335549163818359	0		-0.22900556945800782	5.89621875	0		
0.02249258041381836	-0.00764530611038208	0		0.5564138793945312	-2.441512939453125	0		-1.0225783081054687	0.08457105255126954	0		-0.7853671875	-2.507122802734375	0		1.40869921875	-0.7415581665039063	0		3.0667724609375	-0.18431314086914063	0		4.5980146484375	-0.07673342895507812	0		5.579296875	0.1307517547607422	0		-0.25013117980957034	5.901619140625	0		
-0.006385001182556152	0.0018342620134353638	0		0.5414739379882813	-2.44317041015625	0		-1.009524658203125	0.08757723236083985	0		-0.7383733520507813	-2.515474365234375	0		1.4107725830078126	-0.7383780517578125	0		3.085628662109375	-0.200275634765625	0		4.60295458984375	-0.08451114654541016	0		5.59811376953125	0.11184747314453125	0		-0.28332699584960935	5.89413623046875	0		
0.02768025779724121	-3.7427300214767456E-4	0		0.5426463012695313	-2.44001513671875	0		-1.011352294921875	0.09573147583007813	0		-0.7711654663085937	-2.508983154296875	0		1.415951416015625	-0.7312472534179687	0		3.087999267578125	-0.17407839965820313	0		4.60019482421875	-0.07022766876220703	0		5.58738232421875	0.12923731994628906	0		-0.21624955749511718	5.90456884765625	0		
0.02280650520324707	-0.0031818130016326904	0		0.5578829345703125	-2.437026123046875	0		-0.94728515625	0.08716817474365235	0		-0.7060796508789062	-2.52055224609375	0		1.427005615234375	-0.7421979370117188	0		3.070852294921875	-0.20269688415527343	0		4.60322607421875	-0.08203092956542969	0		5.5773994140625	0.11659198760986328	0		-0.23329098510742188	5.896884765625	0		
-0.01195233154296875	-0.0016883139610290527	0		0.5182532958984375	-2.42747021484375	0		-1.026085693359375	0.08511287689208985	0		-0.7886627197265625	-2.5065615234375	0		1.42624755859375	-0.7420410766601563	0		3.068212158203125	-0.19048985290527343	0		4.59145654296875	-0.0816998519897461	0		5.57171142578125	0.12487625122070313	0		-0.23317919921875	5.8960009765625	0		
0.013343234062194825	-0.0018527630567550658	0		0.552450439453125	-2.440720947265625	0		-1.0267901611328125	0.08520796203613282	0		-0.7444542846679687	-2.518940185546875	0		1.404568603515625	-0.74068212890625	0		3.085373291015625	-0.20351744079589842	0		4.60175439453125	-0.08162850952148437	0		5.57589990234375	0.11502819061279297	0		-0.2690311584472656	5.8914814453125	0		
